<svg width="12" height="12" viewBox="0 0 12 12" fill="none" xmlns="http://www.w3.org/2000/svg">
<path d="M8.27455 6.25L11.686 3.02509C12.1047 2.62935 12.1047 1.98771 11.686 1.59165L10.9278 0.874932C10.5092 0.479189 9.83046 0.479189 9.41148 0.874932L6 4.09984L2.58852 0.874932C2.16989 0.479189 1.49114 0.479189 1.07216 0.874932L0.313977 1.59165C-0.104659 1.98739 -0.104659 2.62902 0.313977 3.02509L3.72545 6.25L0.313977 9.47491C-0.104659 9.87066 -0.104659 10.5123 0.313977 10.9083L1.07216 11.6251C1.4908 12.0208 2.16989 12.0208 2.58852 11.6251L6 8.40016L9.41148 11.6251C9.83011 12.0208 10.5092 12.0208 10.9278 11.6251L11.686 10.9083C12.1047 10.5126 12.1047 9.87098 11.686 9.47491L8.27455 6.25Z" fill="#4F4F4F"/>
</svg>
